<svg xmlns="http://www.w3.org/2000/svg" xmlns:xlink="http://www.w3.org/1999/xlink" width="794" height="142" viewBox="0 0 794 142"><defs><path id="w1hia" d="M736.72 474.95l-3.55-6.66a5.4 5.4 0 0 1-.6-2l-4.36-42.92h-.1c.4 0 .66-.4.5-.75l-.91-1.96a.52.52 0 0 1 .14-.62c.38-.31.15-.92-.35-.92h1.57l-.73-3.03a1.44 1.44 0 0 0-1.4-1.09h-11.4c-.67 0-1.25.45-1.4 1.08l-.73 3.04h1.5c-.5 0-.73.59-.36.91l.09.08c.17.15.22.4.12.61l-.9 1.9c-.16.35.1.75.5.75l-3.98 43.33a5.22 5.22 0 0 1-.6 1.94l-3.97 7.38a31.68 31.68 0 0 0-3.8 15.02v57.31a8.74 8.74 0 0 0 8.83 8.65h20.65a8.88 8.88 0 0 0 8.98-8.79v-58.35c0-5.2-1.28-10.31-3.74-14.91"/><path id="w1hib" d="M1265.52 474.95l-3.55-6.66a5.4 5.4 0 0 1-.6-2l-4.36-42.92h-.1c.4 0 .66-.4.5-.75l-.91-1.96a.52.52 0 0 1 .14-.62c.38-.31.15-.92-.35-.92h1.57l-.73-3.03a1.44 1.44 0 0 0-1.4-1.09h-11.4c-.67 0-1.25.45-1.4 1.08l-.73 3.04h1.5c-.5 0-.73.59-.36.91l.09.08c.17.15.22.4.12.61l-.9 1.9c-.16.35.1.75.5.75l-3.98 43.33a5.22 5.22 0 0 1-.6 1.94l-3.97 7.38a31.68 31.68 0 0 0-3.8 15.02v57.31a8.74 8.74 0 0 0 8.83 8.65h20.65a8.88 8.88 0 0 0 8.98-8.79v-58.35c0-5.2-1.28-10.31-3.74-14.91"/><path id="w1hic" d="M888.15 474.95l-3.55-6.66a5.4 5.4 0 0 1-.6-2l-4.36-42.92h-.1c.4 0 .66-.4.5-.75l-.91-1.96a.52.52 0 0 1 .14-.62c.38-.31.15-.92-.35-.92h1.57l-.73-3.03a1.44 1.44 0 0 0-1.4-1.09h-11.4c-.67 0-1.25.45-1.4 1.08l-.73 3.04h1.5c-.5 0-.73.59-.36.91l.09.08c.17.15.22.4.12.61l-.9 1.9c-.16.35.1.75.5.75l-3.98 43.33a5.22 5.22 0 0 1-.6 1.94l-3.97 7.38a31.68 31.68 0 0 0-3.8 15.02v57.31a8.74 8.74 0 0 0 8.83 8.65h20.65a8.88 8.88 0 0 0 8.98-8.79v-58.35c0-5.2-1.28-10.31-3.74-14.91"/><path id="w1hid" d="M1416.15 474.95l-3.55-6.66a5.4 5.4 0 0 1-.6-2l-4.36-42.92h-.1c.4 0 .66-.4.5-.75l-.91-1.96a.52.52 0 0 1 .14-.62c.38-.31.15-.92-.35-.92h1.57l-.73-3.03a1.44 1.44 0 0 0-1.4-1.09h-11.4c-.67 0-1.25.45-1.4 1.08l-.73 3.04h1.5c-.5 0-.73.59-.36.91l.09.08c.17.15.22.4.12.61l-.9 1.9c-.16.35.1.75.5.75l-3.98 43.33a5.22 5.22 0 0 1-.6 1.94l-3.97 7.38a31.68 31.68 0 0 0-3.8 15.02v57.31a8.74 8.74 0 0 0 8.83 8.65h20.65a8.88 8.88 0 0 0 8.98-8.79v-58.35c0-5.2-1.28-10.31-3.74-14.91"/><path id="w1hie" d="M1492.26 474.95l-3.55-6.66a5.4 5.4 0 0 1-.6-2l-4.36-42.92h-.1c.4 0 .66-.4.5-.75l-.91-1.96a.52.52 0 0 1 .14-.62c.38-.31.15-.92-.35-.92h1.57l-.73-3.03a1.44 1.44 0 0 0-1.4-1.09h-11.4c-.67 0-1.25.45-1.4 1.08l-.73 3.04h1.5c-.5 0-.73.59-.36.91l.09.08c.17.15.22.4.12.61l-.9 1.9c-.16.35.1.75.5.75l-3.98 43.33a5.22 5.22 0 0 1-.6 1.94l-3.97 7.38a31.68 31.68 0 0 0-3.8 15.02v57.31a8.74 8.74 0 0 0 8.83 8.65h20.65a8.88 8.88 0 0 0 8.98-8.79v-58.35c0-5.2-1.28-10.31-3.74-14.91"/><path id="w1hif" d="M812.03 474.95l-3.55-6.66a5.4 5.4 0 0 1-.6-2l-4.36-42.92h-.1c.4 0 .66-.4.5-.75l-.91-1.96a.52.52 0 0 1 .14-.62c.38-.31.15-.92-.35-.92h1.57l-.73-3.03a1.44 1.44 0 0 0-1.4-1.09h-11.4c-.67 0-1.25.45-1.4 1.08l-.73 3.04h1.5c-.5 0-.73.59-.36.91l.09.08c.17.15.22.4.12.61l-.9 1.9c-.16.35.1.75.5.75l-3.98 43.33a5.22 5.22 0 0 1-.6 1.94l-3.97 7.38a31.68 31.68 0 0 0-3.8 15.02v57.31a8.74 8.74 0 0 0 8.83 8.65h20.65a8.88 8.88 0 0 0 8.98-8.79v-58.35c0-5.2-1.28-10.31-3.74-14.91"/><path id="w1hig" d="M963.46 474.95l-3.55-6.66a5.4 5.4 0 0 1-.6-2l-4.36-42.92h-.1c.4 0 .66-.4.5-.75l-.91-1.96a.52.52 0 0 1 .14-.62c.38-.31.15-.92-.35-.92h1.57l-.73-3.03a1.44 1.44 0 0 0-1.4-1.09h-11.4c-.67 0-1.25.45-1.4 1.08l-.73 3.04h1.5c-.5 0-.73.59-.36.91l.09.08c.17.15.22.4.12.61l-.9 1.9c-.16.35.1.75.5.75l-3.98 43.33a5.22 5.22 0 0 1-.6 1.94l-3.97 7.38a31.68 31.68 0 0 0-3.8 15.02v57.31a8.74 8.74 0 0 0 8.83 8.65h20.65a8.88 8.88 0 0 0 8.98-8.79v-58.35c0-5.2-1.28-10.31-3.74-14.91"/><path id="w1hih" d="M1038.78 474.95l-3.55-6.66a5.4 5.4 0 0 1-.6-2l-4.36-42.92h-.1c.4 0 .66-.4.5-.75l-.91-1.96a.52.52 0 0 1 .14-.62c.38-.31.15-.92-.35-.92h1.57l-.73-3.03a1.44 1.44 0 0 0-1.4-1.09h-11.4c-.67 0-1.25.45-1.4 1.08l-.73 3.04h1.5c-.5 0-.73.59-.36.91l.09.08c.17.15.22.4.12.61l-.9 1.9c-.16.35.1.75.5.75l-3.98 43.33a5.22 5.22 0 0 1-.6 1.94l-3.97 7.38a31.68 31.68 0 0 0-3.8 15.02v57.31a8.74 8.74 0 0 0 8.83 8.65h20.65a8.88 8.88 0 0 0 8.98-8.79v-58.35c0-5.2-1.28-10.31-3.74-14.91"/><path id="w1hii" d="M1114.9 474.95l-3.56-6.66a5.4 5.4 0 0 1-.6-2l-4.36-42.92h-.1c.4 0 .66-.4.5-.75l-.91-1.96a.52.52 0 0 1 .14-.62c.38-.31.15-.92-.35-.92h1.57l-.73-3.03a1.44 1.44 0 0 0-1.4-1.09h-11.4c-.67 0-1.25.45-1.4 1.08l-.73 3.04h1.5c-.5 0-.73.59-.36.91l.09.08c.17.15.22.4.12.61l-.9 1.9c-.16.35.1.75.5.75l-3.98 43.33a5.22 5.22 0 0 1-.6 1.94l-3.97 7.38a31.68 31.68 0 0 0-3.8 15.02v57.31A8.74 8.74 0 0 0 1089 557h20.65a8.88 8.88 0 0 0 8.98-8.79v-58.35c0-5.2-1.28-10.31-3.74-14.91"/><path id="w1hij" d="M1190.21 474.95l-3.55-6.66a5.4 5.4 0 0 1-.6-2l-4.36-42.92h-.1c.4 0 .66-.4.5-.75l-.91-1.96a.52.52 0 0 1 .14-.62c.38-.31.15-.92-.35-.92h1.57l-.73-3.03a1.44 1.44 0 0 0-1.4-1.09h-11.4c-.67 0-1.25.45-1.4 1.08l-.73 3.04h1.5c-.5 0-.73.59-.36.91l.09.08c.17.15.22.4.12.61l-.9 1.9c-.16.35.1.75.5.75l-3.98 43.33a5.22 5.22 0 0 1-.6 1.94l-3.97 7.38a31.68 31.68 0 0 0-3.8 15.02v57.31a8.74 8.74 0 0 0 8.83 8.65h20.65a8.88 8.88 0 0 0 8.98-8.79v-58.35c0-5.2-1.28-10.31-3.74-14.91"/><path id="w1hik" d="M1342.44 474.95l-3.55-6.66a5.4 5.4 0 0 1-.6-2l-4.36-42.92h-.1c.4 0 .66-.4.5-.75l-.91-1.96a.52.52 0 0 1 .14-.62c.38-.31.15-.92-.35-.92h1.57l-.73-3.03a1.44 1.44 0 0 0-1.4-1.09h-11.4c-.67 0-1.25.45-1.4 1.08l-.73 3.04h1.5c-.5 0-.73.59-.36.91l.09.08c.17.15.22.4.12.61l-.9 1.9c-.16.35.1.75.5.75l-3.98 43.33a5.22 5.22 0 0 1-.6 1.94l-3.97 7.38a31.68 31.68 0 0 0-3.8 15.02v57.31a8.74 8.74 0 0 0 8.83 8.65h20.65a8.88 8.88 0 0 0 8.98-8.79v-58.35c0-5.2-1.28-10.31-3.74-14.91"/></defs><g><g transform="translate(-702 -415)"><g><use fill="#362c26" xlink:href="#w1hia"/></g><g><use fill="#8f7146" xlink:href="#w1hib"/></g><g><use fill="#6b553a" xlink:href="#w1hic"/></g><g><use fill="#473a2c" xlink:href="#w1hid"/></g><g><use fill="#362c26" xlink:href="#w1hie"/></g><g><use fill="#473a2c" xlink:href="#w1hif"/></g><g><use fill="#8f7146" xlink:href="#w1hig"/></g><g><use fill="#b38d54" xlink:href="#w1hih"/></g><g><use fill="#cfaa6b" xlink:href="#w1hii"/></g><g><use fill="#b38d54" xlink:href="#w1hij"/></g><g><use fill="#6b553a" xlink:href="#w1hik"/></g></g></g></svg>